<svg xmlns="http://www.w3.org/2000/svg" viewBox="0 0 768 768" role="img" aria-labelledby="title desc">
  <title id="title">Popfeed plugin logo</title>
  <desc id="desc">A cute jellyfish and a Popfeed mascot shaking hands on a violet circular background.</desc>
  <defs>
    <linearGradient id="bg" x1="0" y1="0" x2="1" y2="1">
      <stop offset="0%" stop-color="#6d52ff" />
      <stop offset="100%" stop-color="#4e38df" />
    </linearGradient>
    <radialGradient id="disc" cx="50%" cy="42%" r="58%">
      <stop offset="0%" stop-color="#3e3dcd" />
      <stop offset="100%" stop-color="#272d9d" />
    </radialGradient>
    <linearGradient id="cyanBody" x1="0" y1="0" x2="1" y2="1">
      <stop offset="0%" stop-color="#d9fbff" />
      <stop offset="55%" stop-color="#77e0f7" />
      <stop offset="100%" stop-color="#b280ff" />
    </linearGradient>
    <linearGradient id="cyanArm" x1="0" y1="0" x2="1" y2="0">
      <stop offset="0%" stop-color="#c9fbff" />
      <stop offset="100%" stop-color="#af8cff" />
    </linearGradient>
    <linearGradient id="outline" x1="0" y1="0" x2="0" y2="1">
      <stop offset="0%" stop-color="#6f56c9" />
      <stop offset="100%" stop-color="#4b318f" />
    </linearGradient>
    <linearGradient id="starFill" x1="0" y1="0" x2="1" y2="1">
      <stop offset="0%" stop-color="#e8ffff" />
      <stop offset="100%" stop-color="#8f7dff" />
    </linearGradient>
    <filter id="softGlow" x="-20%" y="-20%" width="140%" height="140%">
      <feGaussianBlur stdDeviation="7" />
    </filter>
  </defs>

  <rect width="768" height="768" fill="url(#bg)" />
  <circle cx="384" cy="384" r="334" fill="url(#disc)" />
  <circle cx="384" cy="384" r="332" fill="none" stroke="#7c63ff" stroke-opacity="0.18" stroke-width="6" />
  <circle cx="657" cy="130" r="72" fill="#7990ff" opacity="0.12" />
  <circle cx="642" cy="639" r="83" fill="#6a80ff" opacity="0.09" />

  <g transform="translate(0 6)">
    <g transform="translate(112 146)">
      <path d="M62 145c0-79 72-139 151-139 83 0 145 60 145 137 0 52-36 96-85 114H135c-45-17-73-58-73-112z" fill="url(#cyanBody)" />
      <path d="M62 145c0-79 72-139 151-139 83 0 145 60 145 137 0 52-36 96-85 114H135c-45-17-73-58-73-112z" fill="none" stroke="url(#outline)" stroke-width="8" />
      <ellipse cx="160" cy="72" rx="32" ry="22" fill="#fff" opacity="0.9" transform="rotate(-28 160 72)" />
      <ellipse cx="130" cy="42" rx="14" ry="10" fill="#fff" opacity="0.95" transform="rotate(-24 130 42)" />
      <circle cx="127" cy="136" r="14" fill="#4f3a96" />
      <circle cx="255" cy="136" r="14" fill="#4f3a96" />
      <circle cx="123" cy="132" r="4" fill="#fff" />
      <circle cx="251" cy="132" r="4" fill="#fff" />
      <path d="M155 159c18 17 50 17 68 0" fill="none" stroke="#4f3a96" stroke-linecap="round" stroke-width="9" />

      <path d="M94 254c-34 24-46 80-24 116 16 27 46 31 61 5 13-22 9-51 8-121z" fill="none" stroke="#4f3a96" stroke-linecap="round" stroke-width="22" opacity="0.27" />
      <path d="M151 258c-26 25-32 96-9 132 14 21 38 26 52 4 13-19 15-53 7-133z" fill="none" stroke="#4f3a96" stroke-linecap="round" stroke-width="22" opacity="0.27" />
      <path d="M221 258c-14 24-13 95 12 130 15 20 42 17 52-7 10-24 5-55-17-130z" fill="none" stroke="#4f3a96" stroke-linecap="round" stroke-width="22" opacity="0.27" />
      <path d="M282 251c-6 19 5 83 30 108 20 19 43 10 48-18 5-28-10-56-41-100z" fill="none" stroke="#4f3a96" stroke-linecap="round" stroke-width="22" opacity="0.27" />

      <path d="M88 250c-34 24-46 80-24 116 16 27 46 31 61 5 13-22 9-51 8-121z" fill="none" stroke="url(#cyanArm)" stroke-linecap="round" stroke-width="16" />
      <path d="M145 254c-26 25-32 96-9 132 14 21 38 26 52 4 13-19 15-53 7-133z" fill="none" stroke="url(#cyanArm)" stroke-linecap="round" stroke-width="16" />
      <path d="M215 254c-14 24-13 95 12 130 15 20 42 17 52-7 10-24 5-55-17-130z" fill="none" stroke="url(#cyanArm)" stroke-linecap="round" stroke-width="16" />
      <path d="M276 247c-6 19 5 83 30 108 20 19 43 10 48-18 5-28-10-56-41-100z" fill="none" stroke="url(#cyanArm)" stroke-linecap="round" stroke-width="16" />
    </g>

    <g transform="translate(386 145)">
      <path d="M66 118c0-93 78-156 160-156 84 0 150 58 150 140v166c0 55-35 105-88 126v63c0 17 1 31-18 31H110c-19 0-18-14-18-31v-67c-37-24-60-67-60-118V118z" fill="url(#cyanBody)" />
      <path d="M66 118c0-93 78-156 160-156 84 0 150 58 150 140v166c0 55-35 105-88 126v63c0 17 1 31-18 31H110c-19 0-18-14-18-31v-67c-37-24-60-67-60-118V118z" fill="none" stroke="url(#outline)" stroke-width="8" />
      <path d="M34 96h62c14 0 20-9 20-26V28c34-34 77-50 129-50 80 0 145 54 145 131v196c0 33-9 63-25 89 8-19 11-39 11-62V117c0-82-66-140-150-140-66 0-121 25-167 78V96z" fill="#d7ffff" opacity="0.56" />
      <circle cx="190" cy="123" r="14" fill="#4f3a96" />
      <path d="M244 117c13 0 22 11 22 24 0 11-6 18-14 20 8-13 8-25-8-36z" fill="#4f3a96" />
      <path d="M216 154c15 18 47 16 62-5" fill="none" stroke="#4f3a96" stroke-linecap="round" stroke-width="9" />

      <path d="M201 181l25 51 57 8-41 39 11 56-52-27-52 27 11-56-41-39 57-8z" fill="url(#starFill)" stroke="#5a37aa" stroke-width="8" stroke-linejoin="round" />
      <path d="M201 204l14 27 30 4-22 20 6 30-28-15-27 15 5-30-21-20 30-4z" fill="#7b6bff" opacity="0.34" />

      <path d="M56 388c-8 17-8 42 6 61 15 20 39 19 49-4 7-17 6-36 5-65z" fill="none" stroke="url(#cyanArm)" stroke-linecap="round" stroke-width="16" />
      <path d="M346 387c9 15 11 39-1 59-14 23-39 23-50 1-9-18-10-37-6-63z" fill="none" stroke="url(#cyanArm)" stroke-linecap="round" stroke-width="16" />
      <path d="M121 488v58" fill="none" stroke="#5d4ab2" stroke-linecap="round" stroke-width="20" />
      <path d="M254 488v58" fill="none" stroke="#5d4ab2" stroke-linecap="round" stroke-width="20" />
      <path d="M96 549c10-25 39-28 52 0" fill="none" stroke="#5d4ab2" stroke-linecap="round" stroke-width="18" />
      <path d="M228 549c10-25 39-28 52 0" fill="none" stroke="#5d4ab2" stroke-linecap="round" stroke-width="18" />
    </g>

    <g>
      <path d="M308 553c42-26 94-30 140-13 29 11 55 28 74 51" fill="none" stroke="#4f3a96" stroke-linecap="round" stroke-width="22" opacity="0.28" />
      <path d="M304 548c40-24 92-28 137-11 29 11 55 28 74 51" fill="none" stroke="url(#cyanArm)" stroke-linecap="round" stroke-width="16" />
      <path d="M464 579c9 0 16 7 16 16 0 18-13 27-30 27-16 0-32-9-32-27 0-9 7-16 16-16 7 0 11 4 16 10 5-6 9-10 14-10z" fill="#c8f6ff" stroke="#52379c" stroke-width="7" />
      <path d="M340 577c9 0 16 7 16 16 0 18-13 27-30 27-16 0-32-9-32-27 0-9 7-16 16-16 7 0 11 4 16 10 5-6 9-10 14-10z" fill="#c8f6ff" stroke="#52379c" stroke-width="7" />
      <circle cx="398" cy="602" r="8" fill="#52379c" />
      <circle cx="412" cy="602" r="8" fill="#52379c" />
      <circle cx="426" cy="602" r="8" fill="#52379c" />
    </g>

    <g fill="#ffe8a1" stroke="#94633d" stroke-width="5">
      <path d="M603 112c17-18 49-7 49 17 0 6-2 12-6 16 8 2 15 10 15 20 0 18-17 30-35 24-8 17-35 15-41-3-17 3-31-8-31-24 0-11 7-19 16-22-4-5-6-10-6-16 0-24 23-34 39-23z" />
      <path d="M529 247c10-11 31-4 31 11 0 4-2 8-4 10 5 1 9 6 9 13 0 11-10 19-22 15-5 11-22 10-26-2-11 2-20-5-20-15 0-7 4-12 10-14-3-3-4-6-4-10 0-15 15-22 26-14z" />
      <path d="M101 313c18-19 48-8 48 16 0 6-2 12-6 16 8 2 14 10 14 19 0 18-17 30-35 24-8 16-34 15-40-3-17 4-31-8-31-24 0-10 7-18 16-21-4-4-6-10-6-16 0-23 23-33 40-23z" />
      <path d="M640 415c14-14 38-5 38 14 0 5-2 10-5 13 6 2 11 8 11 16 0 14-13 24-27 19-6 13-27 12-31-2-14 3-24-6-24-19 0-9 5-15 12-18-3-4-5-8-5-13 0-18 18-27 31-18z" />
    </g>

    <g fill="#ffcb68" filter="url(#softGlow)" opacity="0.3">
      <circle cx="100" cy="311" r="22" />
      <circle cx="603" cy="114" r="20" />
      <circle cx="642" cy="417" r="20" />
    </g>

    <g>
      <circle cx="714" cy="700" r="6" fill="#d7d4ff" />
      <path d="M714 684v32M698 700h32" stroke="#d7d4ff" stroke-linecap="round" stroke-width="7" />
    </g>
  </g>
</svg>